<svg xmlns="http://www.w3.org/2000/svg" width="130" height="30" fill="none" viewBox="0 0 130 30"><path fill="#2C70FF" d="M2.576 23.256C1.91467 23.256 1.392 23.0747 1.008 22.712C0.645334 22.328 0.464 21.784 0.464 21.08V2.616C0.464 1.912 0.645334 1.37867 1.008 1.016C1.392 0.631999 1.936 0.439999 2.64 0.439999H13.808C14.3627 0.439999 14.7787 0.578665 15.056 0.855999C15.3333 1.13333 15.472 1.528 15.472 2.04C15.472 2.57333 15.3333 2.98933 15.056 3.288C14.7787 3.56533 14.3627 3.704 13.808 3.704H4.56V10.072H13.136C13.6693 10.072 14.0747 10.2107 14.352 10.488C14.6507 10.7653 14.8 11.16 14.8 11.672C14.8 12.2053 14.6507 12.6213 14.352 12.92C14.0747 13.1973 13.6693 13.336 13.136 13.336H4.56V21.08C4.56 22.5307 3.89867 23.256 2.576 23.256ZM24.674 23.32C22.9033 23.32 21.57 22.8187 20.674 21.816C19.778 20.792 19.33 19.2987 19.33 17.336V2.2C19.33 1.53867 19.5007 1.03733 19.842 0.695999C20.1833 0.354665 20.674 0.183998 21.314 0.183998C21.954 0.183998 22.4447 0.354665 22.786 0.695999C23.1487 1.03733 23.33 1.53867 23.33 2.2V17.144C23.33 18.1253 23.5327 18.8507 23.938 19.32C24.3647 19.7893 24.962 20.024 25.73 20.024C25.9007 20.024 26.0607 20.024 26.21 20.024C26.3593 20.0027 26.5087 19.9813 26.658 19.96C26.9567 19.9173 27.1593 20.0027 27.266 20.216C27.3727 20.408 27.426 20.8133 27.426 21.432C27.426 21.9653 27.3193 22.3813 27.106 22.68C26.8927 22.9787 26.5407 23.16 26.05 23.224C25.8367 23.2453 25.6127 23.2667 25.378 23.288C25.1433 23.3093 24.9087 23.32 24.674 23.32ZM37.1045 23.32C35.3338 23.32 33.8085 22.9893 32.5285 22.328C31.2485 21.6667 30.2565 20.728 29.5525 19.512C28.8698 18.296 28.5285 16.856 28.5285 15.192C28.5285 13.5707 28.8592 12.152 29.5205 10.936C30.2032 9.72 31.1312 8.77067 32.3045 8.088C33.4992 7.384 34.8538 7.032 36.3685 7.032C37.4778 7.032 38.4698 7.21333 39.3445 7.576C40.2405 7.93867 40.9978 8.46133 41.6165 9.144C42.2565 9.82667 42.7365 10.6587 43.0565 11.64C43.3978 12.6 43.5685 13.688 43.5685 14.904C43.5685 15.288 43.4298 15.5867 43.1525 15.8C42.8965 15.992 42.5232 16.088 42.0325 16.088H31.7605V13.784H40.7525L40.2405 14.264C40.2405 13.2827 40.0912 12.4613 39.7925 11.8C39.5152 11.1387 39.0992 10.6373 38.5445 10.296C38.0112 9.93333 37.3392 9.752 36.5285 9.752C35.6325 9.752 34.8645 9.96533 34.2245 10.392C33.6058 10.7973 33.1258 11.384 32.7845 12.152C32.4645 12.8987 32.3045 13.7947 32.3045 14.84V15.064C32.3045 16.8133 32.7098 18.1253 33.5205 19C34.3525 19.8533 35.5685 20.28 37.1685 20.28C37.7232 20.28 38.3418 20.216 39.0245 20.088C39.7285 19.9387 40.3898 19.6933 41.0085 19.352C41.4565 19.096 41.8512 18.9893 42.1925 19.032C42.5338 19.0533 42.8005 19.1707 42.9925 19.384C43.2058 19.5973 43.3338 19.864 43.3765 20.184C43.4192 20.4827 43.3552 20.792 43.1845 21.112C43.0352 21.432 42.7685 21.7093 42.3845 21.944C41.6378 22.4133 40.7738 22.7653 39.7925 23C38.8325 23.2133 37.9365 23.32 37.1045 23.32ZM47.7305 23.16C47.2612 23.16 46.8665 23.032 46.5465 22.776C46.2478 22.4987 46.0878 22.1467 46.0665 21.72C46.0665 21.2933 46.2478 20.8453 46.6105 20.376L51.7945 13.976V15.864L46.9305 9.88C46.5465 9.41067 46.3652 8.96267 46.3865 8.536C46.4078 8.10933 46.5678 7.768 46.8665 7.512C47.1865 7.23467 47.5812 7.096 48.0505 7.096C48.5412 7.096 48.9465 7.18133 49.2665 7.352C49.6078 7.52267 49.9172 7.78933 50.1945 8.152L54.0345 13.08H52.6265L56.4985 8.152C56.7972 7.78933 57.1065 7.52267 57.4265 7.352C57.7465 7.18133 58.1412 7.096 58.6105 7.096C59.1012 7.096 59.4958 7.23467 59.7945 7.512C60.0932 7.78933 60.2425 8.14133 60.2425 8.568C60.2638 8.99467 60.0825 9.44267 59.6985 9.912L54.8665 15.832V14.04L60.0505 20.376C60.4345 20.824 60.6158 21.2613 60.5945 21.688C60.5732 22.1147 60.4025 22.4667 60.0825 22.744C59.7838 23.0213 59.3892 23.16 58.8985 23.16C58.4292 23.16 58.0345 23.0747 57.7145 22.904C57.3945 22.7333 57.0852 22.4667 56.7865 22.104L52.6265 16.856H53.9705L49.8425 22.104C49.5652 22.4453 49.2665 22.712 48.9465 22.904C48.6265 23.0747 48.2212 23.16 47.7305 23.16ZM66.6713 23C65.9673 23 65.4233 22.8187 65.0393 22.456C64.6766 22.072 64.4953 21.528 64.4953 20.824V2.616C64.4953 1.912 64.6766 1.37867 65.0393 1.016C65.4233 0.631999 65.9673 0.439999 66.6713 0.439999H74.3513C75.9299 0.439999 77.2739 0.674665 78.3833 1.144C79.4926 1.61333 80.3353 2.28533 80.9113 3.16C81.5086 4.03467 81.8073 5.08 81.8073 6.296C81.8073 7.66133 81.4126 8.81333 80.6233 9.752C79.8339 10.6907 78.7566 11.32 77.3913 11.64V11.16C78.9699 11.3947 80.1966 11.992 81.0713 12.952C81.9459 13.912 82.3833 15.16 82.3833 16.696C82.3833 18.7013 81.7006 20.2587 80.3353 21.368C78.9913 22.456 77.1139 23 74.7033 23H66.6713ZM68.4313 19.896H74.1913C75.6419 19.896 76.7086 19.6187 77.3913 19.064C78.0739 18.488 78.4153 17.6347 78.4153 16.504C78.4153 15.352 78.0739 14.4987 77.3913 13.944C76.7086 13.3893 75.6419 13.112 74.1913 13.112H68.4313V19.896ZM68.4313 10.008H73.6473C75.0553 10.008 76.1006 9.74133 76.7833 9.208C77.4873 8.65333 77.8393 7.84267 77.8393 6.776C77.8393 5.70933 77.4873 4.90933 76.7833 4.376C76.1006 3.82133 75.0553 3.544 73.6473 3.544H68.4313V10.008ZM91.4865 23.32C89.7158 23.32 88.3825 22.8187 87.4865 21.816C86.5905 20.792 86.1425 19.2987 86.1425 17.336V2.2C86.1425 1.53867 86.3132 1.03733 86.6545 0.695999C86.9958 0.354665 87.4865 0.183998 88.1265 0.183998C88.7665 0.183998 89.2572 0.354665 89.5985 0.695999C89.9612 1.03733 90.1425 1.53867 90.1425 2.2V17.144C90.1425 18.1253 90.3452 18.8507 90.7505 19.32C91.1772 19.7893 91.7745 20.024 92.5425 20.024C92.7132 20.024 92.8732 20.024 93.0225 20.024C93.1718 20.0027 93.3212 19.9813 93.4705 19.96C93.7692 19.9173 93.9718 20.0027 94.0785 20.216C94.1852 20.408 94.2385 20.8133 94.2385 21.432C94.2385 21.9653 94.1318 22.3813 93.9185 22.68C93.7052 22.9787 93.3532 23.16 92.8625 23.224C92.6492 23.2453 92.4252 23.2667 92.1905 23.288C91.9558 23.3093 91.7212 23.32 91.4865 23.32ZM103.341 23.32C101.72 23.32 100.312 22.9893 99.117 22.328C97.9223 21.6667 96.9943 20.728 96.333 19.512C95.6717 18.2747 95.341 16.824 95.341 15.16C95.341 13.9013 95.5223 12.7813 95.885 11.8C96.269 10.7973 96.813 9.944 97.517 9.24C98.221 8.51467 99.0637 7.97067 100.045 7.608C101.026 7.224 102.125 7.032 103.341 7.032C104.962 7.032 106.37 7.36267 107.565 8.024C108.76 8.68533 109.688 9.624 110.349 10.84C111.01 12.056 111.341 13.496 111.341 15.16C111.341 16.4187 111.149 17.5493 110.765 18.552C110.402 19.5547 109.869 20.4187 109.165 21.144C108.461 21.848 107.618 22.392 106.637 22.776C105.656 23.1387 104.557 23.32 103.341 23.32ZM103.341 20.28C104.13 20.28 104.824 20.088 105.421 19.704C106.018 19.32 106.477 18.7547 106.797 18.008C107.138 17.24 107.309 16.2907 107.309 15.16C107.309 13.4533 106.946 12.184 106.221 11.352C105.496 10.4987 104.536 10.072 103.341 10.072C102.552 10.072 101.858 10.264 101.261 10.648C100.664 11.0107 100.194 11.576 99.853 12.344C99.533 13.0907 99.373 14.0293 99.373 15.16C99.373 16.8453 99.7357 18.1253 100.461 19C101.186 19.8533 102.146 20.28 103.341 20.28ZM121.939 29.08C120.787 29.08 119.667 28.9733 118.579 28.76C117.512 28.5467 116.541 28.216 115.667 27.768C115.261 27.5547 114.984 27.2987 114.835 27C114.707 26.7013 114.664 26.392 114.707 26.072C114.771 25.7733 114.899 25.5067 115.091 25.272C115.304 25.0373 115.56 24.8773 115.859 24.792C116.157 24.7067 116.467 24.7493 116.786 24.92C117.725 25.3893 118.611 25.688 119.443 25.816C120.296 25.9653 121.021 26.04 121.619 26.04C123.048 26.04 124.115 25.688 124.819 24.984C125.544 24.3013 125.907 23.2773 125.907 21.912V19.032H126.195C125.875 20.12 125.203 20.9947 124.179 21.656C123.176 22.296 122.035 22.616 120.755 22.616C119.347 22.616 118.12 22.296 117.075 21.656C116.029 20.9947 115.219 20.0773 114.643 18.904C114.067 17.7307 113.779 16.3653 113.779 14.808C113.779 13.6347 113.939 12.5787 114.259 11.64C114.6 10.68 115.069 9.85867 115.667 9.176C116.285 8.49333 117.021 7.97067 117.875 7.608C118.749 7.224 119.709 7.032 120.755 7.032C122.077 7.032 123.229 7.36267 124.211 8.024C125.213 8.664 125.864 9.51733 126.163 10.584L125.843 11.384V9.112C125.843 8.45067 126.013 7.94933 126.355 7.608C126.717 7.26667 127.208 7.096 127.827 7.096C128.467 7.096 128.957 7.26667 129.299 7.608C129.64 7.94933 129.811 8.45067 129.811 9.112V21.432C129.811 23.9707 129.139 25.88 127.795 27.16C126.451 28.44 124.499 29.08 121.939 29.08ZM121.843 19.576C122.675 19.576 123.389 19.384 123.987 19C124.584 18.616 125.043 18.072 125.363 17.368C125.704 16.6427 125.875 15.7893 125.875 14.808C125.875 13.336 125.512 12.184 124.787 11.352C124.061 10.4987 123.08 10.072 121.843 10.072C121.011 10.072 120.296 10.264 119.699 10.648C119.101 11.032 118.632 11.576 118.291 12.28C117.971 12.984 117.811 13.8267 117.811 14.808C117.811 16.28 118.173 17.4427 118.899 18.296C119.624 19.1493 120.605 19.576 121.843 19.576Z"/></svg>